                                                                        S      1
,,21HTilt Bracket Shaft v2,21HTilt Bracket Shaft v2,7Hunknown,7Hunknown,G      1
32,38,7,99,15,,1.,2,2HMM,1,0.08,15H20221009.145041,0.01,10000.,7HunknownG      2
,7Hunknown,11,0,15H20220816.184434;                                     G      3
     186       1                                                00000000D      1
     186             -71       1       0                               0D      2
     514       2                                                00010000D      3
     514                       1       1                               0D      4
     510       3                                                00010000D      5
     510             -71       1       1                               0D      6
     510       4                                                00010000D      7
     510             -71       1       1                               0D      8
     510       5                                                00010000D      9
     510             -71       1       1                               0D     10
     510       6                                                00010000D     11
     510             -71       1       1                               0D     12
     510       7                                                00010000D     13
     510             -71       1       1                               0D     14
     510       8                                                00010000D     15
     510             -71       1       1                               0D     16
     508       9                                                00010000D     17
     508                       1       1                               0D     18
     508      10                                                00010000D     19
     508                       1       1                               0D     20
     508      11                                                00010000D     21
     508                       1       1                               0D     22
     508      12                                                00010000D     23
     508                       1       1                               0D     24
     508      13                                                00010000D     25
     508                       1       1                               0D     26
     508      14                                                00010000D     27
     508                       1       1                               0D     28
     508      15                                                00010000D     29
     508                       1       1                               0D     30
     508      16                                                00010000D     31
     508                       1       1                               0D     32
     126      17                                                00010000D     33
     126       0              10       0                               0D     34
     126      27                                                00010000D     35
     126       0               4       0                               0D     36
     126      31                                                00010000D     37
     126       0              11       0                               0D     38
     126      42                                                00010000D     39
     126       0               3       0                               0D     40
     126      45                                                00010000D     41
     126       0              11       0                               0D     42
     126      56                                                00010000D     43
     126       0              10       0                               0D     44
     126      66                                                00010000D     45
     126       0              10       0                               0D     46
     126      76                                                00010000D     47
     126       0               4       0                               0D     48
     126      80                                                00010000D     49
     126       0              10       0                               0D     50
     126      90                                                00010000D     51
     126       0               3       0                               0D     52
     128      93                                                00010000D     53
     128       0     -71      15       0                               0D     54
     128     108                                                00010000D     55
     128       0     -71      15       0                               0D     56
     128     123                                                00010000D     57
     128       0     -71       4       0                               0D     58
     128     127                                                00010000D     59
     128       0     -71      15       0                               0D     60
     128     142                                                00010000D     61
     128       0     -71       4       0                               0D     62
     128     146                                                00010000D     63
     128       0     -71      14       0                               0D     64
     502     160                                                00010000D     65
     502                       4       1                               0D     66
     504     164                                                00010001D     67
     504                       3       1                               0D     68
     406     167                                                00000000D     69
     406                       1      15                               0D     70
     314     168                                                00000200D     71
     314                       2       0                               0D     72
186,3,1,0,0,1,69;                                                      1P      1
514,6,5,1,7,1,9,1,11,1,13,1,15,1;                                      3P      2
510,53,1,1,17;                                                         5P      3
510,55,1,1,19;                                                         7P      4
510,57,2,1,21,23;                                                      9P      5
510,59,1,1,25;                                                        11P      6
510,61,2,1,27,29;                                                     13P      7
510,63,1,1,31;                                                        15P      8
508,4,0,67,1,1,0,0,67,2,1,0,0,67,3,1,0,0,67,2,0,0;                    17P      9
508,4,0,67,3,0,0,0,67,4,1,0,0,67,5,0,0,0,67,4,0,0;                    19P     10
508,1,0,67,1,0,0;                                                     21P     11
508,1,0,67,6,1,0;                                                     23P     12
508,4,0,67,7,1,0,0,67,8,1,0,0,67,5,1,0,0,67,8,0,0;                    25P     13
508,1,0,67,7,0,0;                                                     27P     14
508,1,0,67,9,1,0;                                                     29P     15
508,4,0,67,6,0,0,0,67,10,1,0,0,67,9,0,0,0,67,10,0,0;                  31P     16
126,8,2,0,1,0,0,-3.14159265358979,-3.14159265358979,                  33P     17
-3.14159265358979,-1.5707963267949,-1.5707963267949,0.,0.,            33P     18
1.5707963267949,1.5707963267949,3.14159265358979,                     33P     19
3.14159265358979,3.14159265358979,1.,0.707106781186548,1.,            33P     20
0.707106781186548,1.,0.707106781186548,1.,0.707106781186548,1.,       33P     21
-2.13125,2.6100284906828D-16,5.5,-2.13125,2.13125,5.5,                33P     22
1.3050142453414D-16,2.13125,5.5,2.13125,2.13125,5.5,2.13125,0.,       33P     23
5.5,2.13125,-2.13125,5.5,1.3050142453414D-16,-2.13125,5.5,            33P     24
-2.13125,-2.13125,5.5,-2.13125,-2.6100284906828D-16,5.5,              33P     25
-3.14159265358979,3.14159265358979,0.,0.,0.;                          33P     26
126,1,1,0,0,1,0,-0.0783497818489248,-0.0783497818489248,              35P     27
0.0783497818489251,0.0783497818489251,1.,1.,-2.13125,0.,5.5,          35P     28
-2.38125,0.,5.25,-0.0783497818489248,0.0783497818489251,0.,0.,        35P     29
0.;                                                                   35P     30
126,8,2,0,1,0,0,-3.14159265358979,-3.14159265358979,                  37P     31
-3.14159265358979,-1.5707963267949,-1.5707963267949,0.,0.,            37P     32
1.5707963267949,1.5707963267949,3.14159265358979,                     37P     33
3.14159265358979,3.14159265358979,1.,0.707106781186547,1.,            37P     34
0.707106781186548,1.,0.707106781186548,1.,0.707106781186547,1.,       37P     35
-2.38125,-2.91619019046963D-16,5.25,-2.38125,-2.38125,5.25,           37P     36
1.45809509523482D-16,-2.38125,5.25,2.38125,-2.38125,5.25,             37P     37
2.38125,0.,5.25,2.38125,2.38125,5.25,1.45809509523482D-16,            37P     38
2.38125,5.25,-2.38125,2.38125,5.25,-2.38125,                          37P     39
2.91619019046963D-16,5.25,-3.14159265358979,3.14159265358979,0.,      37P     40
0.,0.;                                                                37P     41
126,1,1,0,0,1,0,-2.20472440944882,-2.20472440944882,                  39P     42
2.20472440944882,2.20472440944882,1.,1.,-2.38125,0.,5.25,             39P     43
-2.38125,0.,-5.25,-2.20472440944882,2.20472440944882,0.,0.,0.;        39P     44
126,8,2,0,1,0,0,-3.14159265358979,-3.14159265358979,                  41P     45
-3.14159265358979,-1.5707963267949,-1.5707963267949,0.,0.,            41P     46
1.5707963267949,1.5707963267949,3.14159265358979,                     41P     47
3.14159265358979,3.14159265358979,1.,0.707106781186547,1.,            41P     48
0.707106781186548,1.,0.707106781186548,1.,0.707106781186547,1.,       41P     49
-2.38125,2.91619019046963D-16,-5.25,-2.38125,2.38125,-5.25,           41P     50
1.45809509523482D-16,2.38125,-5.25,2.38125,2.38125,-5.25,             41P     51
2.38125,0.,-5.25,2.38125,-2.38125,-5.25,1.45809509523482D-16,         41P     52
-2.38125,-5.25,-2.38125,-2.38125,-5.25,-2.38125,                      41P     53
-2.91619019046963D-16,-5.25,-3.14159265358979,3.14159265358979,       41P     54
0.,0.,0.;                                                             41P     55
126,8,2,0,1,0,0,-3.14159265358979,-3.14159265358979,                  43P     56
-3.14159265358979,-1.5707963267949,-1.5707963267949,0.,0.,            43P     57
1.5707963267949,1.5707963267949,3.14159265358979,                     43P     58
3.14159265358979,3.14159265358979,1.,0.707106781186548,1.,            43P     59
0.707106781186548,1.,0.707106781186548,1.,0.707106781186548,1.,       43P     60
-1.75,2.14313189850787D-16,5.5,-1.75,1.75,5.5,                        43P     61
1.07156594925393D-16,1.75,5.5,1.75,1.75,5.5,1.75,0.,5.5,1.75,         43P     62
-1.75,5.5,1.07156594925393D-16,-1.75,5.5,-1.75,-1.75,5.5,-1.75,       43P     63
-2.14313189850787D-16,5.5,-3.14159265358979,3.14159265358979,0.,      43P     64
0.,0.;                                                                43P     65
126,8,2,0,1,0,0,-3.14159265358979,-3.14159265358979,                  45P     66
-3.14159265358979,-1.5707963267949,-1.5707963267949,0.,0.,            45P     67
1.5707963267949,1.5707963267949,3.14159265358979,                     45P     68
3.14159265358979,3.14159265358979,1.,0.707106781186548,1.,            45P     69
0.707106781186548,1.,0.707106781186548,1.,0.707106781186548,1.,       45P     70
-2.13125,-2.6100284906828D-16,-5.5,-2.13125,-2.13125,-5.5,            45P     71
1.3050142453414D-16,-2.13125,-5.5,2.13125,-2.13125,-5.5,2.13125,      45P     72
0.,-5.5,2.13125,2.13125,-5.5,1.3050142453414D-16,2.13125,-5.5,        45P     73
-2.13125,2.13125,-5.5,-2.13125,2.6100284906828D-16,-5.5,              45P     74
-3.14159265358979,3.14159265358979,0.,0.,0.;                          45P     75
126,1,1,0,0,1,0,-0.0783497818489248,-0.0783497818489248,              47P     76
0.0783497818489251,0.0783497818489251,1.,1.,-2.13125,0.,-5.5,         47P     77
-2.38125,0.,-5.25,-0.0783497818489248,0.0783497818489251,0.,0.,       47P     78
0.;                                                                   47P     79
126,8,2,0,1,0,0,-3.14159265358979,-3.14159265358979,                  49P     80
-3.14159265358979,-1.5707963267949,-1.5707963267949,0.,0.,            49P     81
1.5707963267949,1.5707963267949,3.14159265358979,                     49P     82
3.14159265358979,3.14159265358979,1.,0.707106781186548,1.,            49P     83
0.707106781186548,1.,0.707106781186548,1.,0.707106781186548,1.,       49P     84
-1.75,-2.14313189850787D-16,-5.5,-1.75,-1.75,-5.5,                    49P     85
1.07156594925393D-16,-1.75,-5.5,1.75,-1.75,-5.5,1.75,0.,-5.5,         49P     86
1.75,1.75,-5.5,1.07156594925393D-16,1.75,-5.5,-1.75,1.75,-5.5,        49P     87
-1.75,2.14313189850787D-16,-5.5,-3.14159265358979,                    49P     88
3.14159265358979,0.,0.,0.;                                            49P     89
126,1,1,0,0,1,0,-3.14285714285714,-3.14285714285714,                  51P     90
3.14285714285714,3.14285714285714,1.,1.,-1.75,0.,5.5,-1.75,0.,        51P     91
-5.5,-3.14285714285714,3.14285714285714,0.,0.,0.;                     51P     92
128,1,8,1,2,0,1,0,0,1,-0.0783497818489251,-0.0783497818489251,        53P     93
0.0783497818489248,0.0783497818489248,-3.14159265358979,              53P     94
-3.14159265358979,-3.14159265358979,-1.5707963267949,                 53P     95
-1.5707963267949,0.,0.,1.5707963267949,1.5707963267949,               53P     96
3.14159265358979,3.14159265358979,3.14159265358979,1.,1.,             53P     97
0.707106781186548,0.707106781186548,1.,1.,0.707106781186548,          53P     98
0.707106781186548,1.,1.,0.707106781186548,0.707106781186548,1.,       53P     99
1.,0.707106781186548,0.707106781186548,1.,1.,-2.13125,0.,5.5,         53P    100
-2.38125,0.,5.25,-2.13125,-2.13125,5.5,-2.38125,-2.38125,5.25,        53P    101
0.,-2.13125,5.5,0.,-2.38125,5.25,2.13125,-2.13125,5.5,2.38125,        53P    102
-2.38125,5.25,2.13125,0.,5.5,2.38125,0.,5.25,2.13125,2.13125,         53P    103
5.5,2.38125,2.38125,5.25,0.,2.13125,5.5,0.,2.38125,5.25,              53P    104
-2.13125,2.13125,5.5,-2.38125,2.38125,5.25,-2.13125,0.,5.5,           53P    105
-2.38125,0.,5.25,-0.0783497818489251,0.0783497818489248,              53P    106
-3.14159265358979,3.14159265358979;                                   53P    107
128,1,8,1,2,0,1,0,0,1,-2.20472440944882,-2.20472440944882,            55P    108
2.20472440944882,2.20472440944882,-3.14159265358979,                  55P    109
-3.14159265358979,-3.14159265358979,-1.5707963267949,                 55P    110
-1.5707963267949,0.,0.,1.5707963267949,1.5707963267949,               55P    111
3.14159265358979,3.14159265358979,3.14159265358979,1.,1.,             55P    112
0.707106781186548,0.707106781186548,1.,1.,0.707106781186548,          55P    113
0.707106781186548,1.,1.,0.707106781186548,0.707106781186548,1.,       55P    114
1.,0.707106781186548,0.707106781186548,1.,1.,-2.38125,0.,5.25,        55P    115
-2.38125,0.,-5.25,-2.38125,-2.38125,5.25,-2.38125,-2.38125,           55P    116
-5.25,0.,-2.38125,5.25,0.,-2.38125,-5.25,2.38125,-2.38125,5.25,       55P    117
2.38125,-2.38125,-5.25,2.38125,0.,5.25,2.38125,0.,-5.25,2.38125,      55P    118
2.38125,5.25,2.38125,2.38125,-5.25,0.,2.38125,5.25,0.,2.38125,        55P    119
-5.25,-2.38125,2.38125,5.25,-2.38125,2.38125,-5.25,-2.38125,0.,       55P    120
5.25,-2.38125,0.,-5.25,-2.20472440944882,2.20472440944882,            55P    121
-3.14159265358979,3.14159265358979;                                   55P    122
128,1,1,1,1,0,0,1,0,0,-0.214125,-0.214125,0.214125,0.214125,          57P    123
-0.214125,-0.214125,0.214125,0.214125,1.,1.,1.,1.,-2.14125,           57P    124
-2.14125,5.5,2.14125,-2.14125,5.5,-2.14125,2.14125,5.5,2.14125,       57P    125
2.14125,5.5,-0.214125,0.214125,-0.214125,0.214125;                    57P    126
128,1,8,1,2,0,1,0,0,1,-0.0783497818489251,-0.0783497818489251,        59P    127
0.0783497818489248,0.0783497818489248,-3.14159265358979,              59P    128
-3.14159265358979,-3.14159265358979,-1.5707963267949,                 59P    129
-1.5707963267949,0.,0.,1.5707963267949,1.5707963267949,               59P    130
3.14159265358979,3.14159265358979,3.14159265358979,1.,1.,             59P    131
0.707106781186548,0.707106781186548,1.,1.,0.707106781186548,          59P    132
0.707106781186548,1.,1.,0.707106781186548,0.707106781186548,1.,       59P    133
1.,0.707106781186548,0.707106781186548,1.,1.,-2.13125,0.,-5.5,        59P    134
-2.38125,0.,-5.25,-2.13125,2.13125,-5.5,-2.38125,2.38125,-5.25,       59P    135
0.,2.13125,-5.5,0.,2.38125,-5.25,2.13125,2.13125,-5.5,2.38125,        59P    136
2.38125,-5.25,2.13125,0.,-5.5,2.38125,0.,-5.25,2.13125,-2.13125,      59P    137
-5.5,2.38125,-2.38125,-5.25,0.,-2.13125,-5.5,0.,-2.38125,-5.25,       59P    138
-2.13125,-2.13125,-5.5,-2.38125,-2.38125,-5.25,-2.13125,0.,-5.5,      59P    139
-2.38125,0.,-5.25,-0.0783497818489251,0.0783497818489248,             59P    140
-3.14159265358979,3.14159265358979;                                   59P    141
128,1,1,1,1,0,0,1,0,0,-0.214125,-0.214125,0.214125,0.214125,          61P    142
-0.214125,-0.214125,0.214125,0.214125,1.,1.,1.,1.,2.14125,            61P    143
-2.14125,-5.5,-2.14125,-2.14125,-5.5,2.14125,2.14125,-5.5,            61P    144
-2.14125,2.14125,-5.5,-0.214125,0.214125,-0.214125,0.214125;          61P    145
128,1,8,1,2,0,1,0,0,1,-3.14285714285714,-3.14285714285714,            63P    146
3.14285714285714,3.14285714285714,-3.14159265358979,                  63P    147
-3.14159265358979,-3.14159265358979,-1.5707963267949,                 63P    148
-1.5707963267949,0.,0.,1.5707963267949,1.5707963267949,               63P    149
3.14159265358979,3.14159265358979,3.14159265358979,1.,1.,             63P    150
0.707106781186548,0.707106781186548,1.,1.,0.707106781186548,          63P    151
0.707106781186548,1.,1.,0.707106781186548,0.707106781186548,1.,       63P    152
1.,0.707106781186548,0.707106781186548,1.,1.,-1.75,0.,-5.5,           63P    153
-1.75,0.,5.5,-1.75,-1.75,-5.5,-1.75,-1.75,5.5,0.,-1.75,-5.5,0.,       63P    154
-1.75,5.5,1.75,-1.75,-5.5,1.75,-1.75,5.5,1.75,0.,-5.5,1.75,0.,        63P    155
5.5,1.75,1.75,-5.5,1.75,1.75,5.5,0.,1.75,-5.5,0.,1.75,5.5,-1.75,      63P    156
1.75,-5.5,-1.75,1.75,5.5,-1.75,0.,-5.5,-1.75,0.,5.5,                  63P    157
-3.14285714285714,3.14285714285714,-3.14159265358979,                 63P    158
3.14159265358979;                                                     63P    159
502,6,-2.13125,2.6100284906828D-16,5.5,-2.38125,                      65P    160
-2.91619019046963D-16,5.25,-2.38125,2.91619019046963D-16,-5.25,       65P    161
-1.75,-2.14313189850787D-16,5.5,-2.13125,-2.6100284906828D-16,        65P    162
-5.5,-1.75,-2.14313189850787D-16,-5.5;                                65P    163
504,10,33,65,1,65,1,35,65,1,65,2,37,65,2,65,2,39,65,2,65,3,41,        67P    164
65,3,65,3,43,65,4,65,4,45,65,5,65,5,47,65,5,65,3,49,65,6,65,6,        67P    165
51,65,4,65,6;                                                         67P    166
406,1,7H实体1;                                                      69P    167
314,62.7450980392157,62.7450980392157,62.7450980392157,12H钢 -       71P    168
缎光;                                                               71P    169
S      1G      3D     72P    169                                        T      1
