<svg xmlns="http://www.w3.org/2000/svg" xmlns:xlink="http://www.w3.org/1999/xlink" width="20.091mm" height="29.896mm" viewBox="4010 3271.4 79.1 117.7"><title></title><style type="text/css">
*[layerid="1"] {stroke:#000000;fill:#000000;}
*[layerid="2"] {stroke:#000000;fill:#000000;}
*[layerid="3"] {stroke:#000000;fill:#000000;}
*[layerid="4"] {stroke:#000000;fill:#000000;}
*[layerid="5"] {stroke:#000000;fill:#000000;}
*[layerid="6"] {stroke:#000000;fill:#000000;}
*[layerid="7"] {stroke:#000000;fill:#000000;}
*[layerid="8"] {stroke:#000000;fill:#000000;}
*[layerid="9"] {stroke:#000000;fill:#000000;}
*[layerid="10"] {stroke:#000000;fill:#000000;}
*[layerid="11"] {stroke:#000000;fill:#000000;}
*[layerid="12"] {stroke:#000000;fill:#000000;}
*[layerid="13"] {stroke:#000000;fill:#000000;}
*[layerid="14"] {stroke:#000000;fill:#000000;}
*[layerid="15"] {stroke:#000000;fill:#000000;}
*[layerid="19"] {stroke:#000000;fill:#000000;}
*[layerid="21"] {stroke:#000000;fill:#000000;}
*[layerid="22"] {stroke:#000000;fill:#000000;}
*[layerid="23"] {stroke:#000000;fill:#000000;}
*[layerid="24"] {stroke:#000000;fill:#000000;}
*[layerid="25"] {stroke:#000000;fill:#000000;}
*[layerid="26"] {stroke:#000000;fill:#000000;}
*[layerid="27"] {stroke:#000000;fill:#000000;}
*[layerid="28"] {stroke:#000000;fill:#000000;}
*[layerid="29"] {stroke:#000000;fill:#000000;}
*[layerid="30"] {stroke:#000000;fill:#000000;}
*[layerid="31"] {stroke:#000000;fill:#000000;}
*[layerid="32"] {stroke:#000000;fill:#000000;}
*[layerid="33"] {stroke:#000000;fill:#000000;}
*[layerid="34"] {stroke:#000000;fill:#000000;}
*[layerid="35"] {stroke:#000000;fill:#000000;}
*[layerid="36"] {stroke:#000000;fill:#000000;}
*[layerid="37"] {stroke:#000000;fill:#000000;}
*[layerid="38"] {stroke:#000000;fill:#000000;}
*[layerid="39"] {stroke:#000000;fill:#000000;}
*[layerid="40"] {stroke:#000000;fill:#000000;}
*[layerid="41"] {stroke:#000000;fill:#000000;}
*[layerid="42"] {stroke:#000000;fill:#000000;}
*[layerid="43"] {stroke:#000000;fill:#000000;}
*[layerid="44"] {stroke:#000000;fill:#000000;}
*[layerid="45"] {stroke:#000000;fill:#000000;}
*[layerid="46"] {stroke:#000000;fill:#000000;}
*[layerid="47"] {stroke:#000000;fill:#000000;}
*[layerid="48"] {stroke:#000000;fill:#000000;}
*[layerid="49"] {stroke:#000000;fill:#000000;}
*[layerid="50"] {stroke:#000000;fill:#000000;}
*[layerid="51"] {stroke:#000000;fill:#000000;}
*[layerid="52"] {stroke:#000000;fill:#000000;}
*[layerid="99"] {stroke:#000000;fill:#000000;}
*[layerid="100"] {stroke:#000000;fill:#000000;}
*[layerid="101"] {stroke:#000000;fill:#000000;}
*[layerid="Hole"] {stroke:#000000;fill:#000000;}
*[layerid="DRCError"] {stroke:#000000;fill:#000000;}
*[fill="none"] {fill: none;}
*[stroke="none"] {stroke: none;}
path, polyline, polygon, line {stroke-linecap:round;}
g[c_partid="part_pad"][layerid="1"] ellipse:not([c_etype="pad_outer"]) {fill:#000000;}
g[c_partid="part_pad"][layerid="1"] polygon:not([c_etype="pad_outer"]) {fill:#000000;}
g[c_partid="part_pad"][layerid="1"] polyline:not([c_etype="pad_outer"]) {stroke:#000000;}
g[c_partid="part_pad"][layerid="2"] ellipse:not([c_etype="pad_outer"]) {fill:#000000;}
g[c_partid="part_pad"][layerid="2"] polygon:not([c_etype="pad_outer"]) {fill:#000000;}
g[c_partid="part_pad"][layerid="2"] polyline:not([c_etype="pad_outer"]) {stroke:#000000;}
g[c_partid="part_pad"][layerid="11"] ellipse:not([c_etype="pad_outer"]) {fill:#000000;}
g[c_partid="part_pad"][layerid="11"] polygon:not([c_etype="pad_outer"]) {fill:#000000;}
g[c_partid="part_pad"][layerid="11"] polyline:not([c_etype="pad_outer"]) {stroke:#000000;}
g[c_partid="part_pad"][layerid="11"] circle {fill:#FFFFFF;}
g[c_partid="part_pad"][layerid="11"] > polyline:nth-of-type(2) {stroke:#FFFFFF;}
g[c_partid="part_pad"][layerid="11"][c_shape="ELLIPSE"]  polyline:nth-last-of-type(1) {stroke:#FFFFFF;}
g[c_partid="part_pad"][layerid="11"][c_shape="RECT"]  polyline:nth-last-of-type(1) {stroke:#FFFFFF;}
g[c_partid="part_pad"][layerid="11"][c_shape="POLYGON"]  polyline:nth-last-of-type(1) {stroke:#FFFFFF;}
g[c_partid="part_via"] > * + circle, #gCurParts g[c_partid="part_via"] > * + circle {fill:#FFFFFF;}
g[c_partid="part_pad"] > polygon[c_etype="pad_outer"], #gCurParts g[c_partid="part_pad"] > polygon[c_etype="pad_outer"] {stroke-linejoin: round;stroke-miterlimit: 100;}
g[c_partid="part_hole"] > circle {fill: #FFFFFF;}path, polyline, polygon {stroke-linejoin:round;}
rect, circle, ellipse, polyline, line, polygon, path {shape-rendering:crispEdges;}
</style>
<rect x="4010" y="3271.4" width="79.1" height="117.7" fill="#FFFFFF" stroke="none"/><polyline points="4065.53 3294.85 4065.53 3289.03 4063.85 3287.35 4054.53 3287.35" stroke-width="1"  stroke-linecap="round" fill="none" layerid="1" net="H1_2" id="gge215693" locked="0" /><polyline points="4033.5 3294.8 4033.5 3289 4035.1494 3287.3506 4044.5276 3287.3506" stroke-width="1"  stroke-linecap="round" fill="none" layerid="1" net="H1_1" id="gge215678" locked="0" /><g c_partid="part_pad" c_etype="pinpart" c_origin="4033.5,3294.8" layerid="1" number="5" net="H1_1" plated ="Y"  id="gge215881" locked="0" c_rotation="0" c_width="6" c_height="10" title="H1_1" c_shape="OVAL" pasteexpansion="0" solderexpansion="0.2"><polyline  c_etype="pad_shell" points="4033.5 3292.8 4033.5 3296.8" layerid="1" stroke-width="6" /><circle c_etype="pad_hole" cx="4033.5" cy="3294.8" r="0" layerid="1" stroke-width="0"/></g><g c_partid="part_pad" c_etype="pinpart" c_origin="4065.53,3294.85" layerid="1" number="6" net="H1_2" plated ="Y"  id="gge215905" locked="0" c_rotation="0" c_width="6" c_height="10" title="H1_2" c_shape="OVAL" pasteexpansion="0" solderexpansion="0.2"><polyline  c_etype="pad_shell" points="4065.53 3292.85 4065.53 3296.85" layerid="1" stroke-width="6" /><circle c_etype="pad_hole" cx="4065.53" cy="3294.85" r="0" layerid="1" stroke-width="0"/></g><g c_partid="part_pad" c_etype="pinpart" c_origin="4065.528,3294.847" layerid="1" number="2" net="H1_2" plated ="Y"  id="gge215627" locked="0" c_rotation="0" c_width="6" c_height="10" title="H1_2" c_shape="OVAL" pasteexpansion="0" solderexpansion="0.2"><polyline  c_etype="pad_shell" points="4065.528 3292.847 4065.528 3296.847" layerid="1" stroke-width="6" /><circle c_etype="pad_hole" cx="4065.5275" cy="3294.8465" r="0" layerid="1" stroke-width="0"/></g><g c_partid="part_pad" c_etype="pinpart" c_origin="4033.528,3294.847" layerid="1" number="1" net="H1_1" plated ="Y"  id="gge215642" locked="0" c_rotation="0" c_width="6" c_height="10" title="H1_1" c_shape="OVAL" pasteexpansion="0" solderexpansion="0.2"><polyline  c_etype="pad_shell" points="4033.528 3292.847 4033.528 3296.847" layerid="1" stroke-width="6" /><circle c_etype="pad_hole" cx="4033.5275" cy="3294.8465" r="0" layerid="1" stroke-width="0"/></g><g c_partid="part_pad" c_etype="pinpart" c_origin="4044.528,3287.351" layerid="11" number="1" net="H1_1" plated ="Y"  id="gge211819" locked="0" c_rotation="0" c_width="7.874" c_height="7.874" title="H1_1" c_shape="RECT" pasteexpansion="0" solderexpansion="0.2"><polygon  c_etype="pad_shell" points="4040.5905 3283.4135 4048.4645 3283.4135 4048.4645 3291.2875 4040.5905 3291.2875" layerid="11" stroke-width="0" /><circle c_etype="pad_hole" cx="4044.5275" cy="3287.3505" r="2.3622" layerid="11" stroke-width="0"/></g><g c_partid="part_pad" c_etype="pinpart" c_origin="4054.528,3287.351" layerid="11" number="2" net="H1_2" plated ="Y"  id="gge211834" locked="0" c_rotation="0" c_width="7.874" c_height="7.874" title="H1_2" c_shape="ELLIPSE" pasteexpansion="0" solderexpansion="0.2"><ellipse c_etype="pad_shell" cx="4054.528" cy="3287.351" rx="3.937" ry="3.937" layerid="11" stroke-width="0"/><circle c_etype="pad_hole" cx="4054.5275" cy="3287.3505" r="2.3622" layerid="11" stroke-width="0"/></g><g c_partid="part_via" c_etype="pinpart" c_shapetype="group" net="H1_1" c_origin="4034,3294.5" layerid="11" id="gge215703" locked="0" solderexpansion=""><circle cx="4034" cy="3294.5" r="1.2008" stroke-width="0" c_etype="pad_shell"/><circle cx="4034" cy="3294.5" r="0.6004"  stroke-width="0" c_etype="pad_hole"/></g><g c_partid="part_via" c_etype="pinpart" c_shapetype="group" net="H1_2" c_origin="4065,3294.5" layerid="11" id="gge215710" locked="0" solderexpansion=""><circle cx="4065" cy="3294.5" r="1.2008" stroke-width="0" c_etype="pad_shell"/><circle cx="4065" cy="3294.5" r="0.6004"  stroke-width="0" c_etype="pad_hole"/></g><polyline points="4043.6225 3290.3465 4055.4335 3290.3465 4055.4335 3296.8465 4043.6225 3296.8465 4043.6225 3290.3465" stroke-width="1"  stroke-linecap="round" fill="none" layerid="3" net="" id="gge215621" locked="0" /><polyline points="4059.5275 3282.3505 4059.5275 3292.3505 4039.5275 3292.3505 4039.5275 3282.3505 4047.0275 3282.3505" stroke-width="0.8"  stroke-linecap="round" fill="none" layerid="3" net="" id="gge211801" locked="0" /><polyline points="4059.5275 3282.3505 4047.0275 3282.3505" stroke-width="0.79921"  stroke-linecap="round" fill="none" layerid="3" net="" id="gge211804" locked="0" /><g c_partid="part_pcbtext" c_etype="" c_origin="4049.528,3280.847" c_rotation="0" c_mirror="0" id="gge215609" locked="0" layerid="3" c_shapetype="group" display="none"><path c_fontsize="4.5" c_fontfamily="" c_text="VM" d="M 4049.5275 3276.3065 L 4051.1675 3280.5965 M 4052.7975 3276.3065 L 4051.1675 3280.5965 M 4054.1475 3276.3065 L 4054.1475 3280.5965 M 4054.1475 3276.3065 L 4055.7875 3280.5965 M 4057.4275 3276.3065 L 4055.7875 3280.5965 M 4057.4275 3276.3065 L 4057.4275 3280.5965" fill="none"  stroke-width="0.6" c_note="note_name" /></g><g c_partid="part_pcbtext" c_etype="" c_origin="4047.559,3283.414" c_rotation="0" c_mirror="0" id="gge215615" locked="0" layerid="3" c_shapetype="group" display="none"><path c_fontsize="4.5" c_fontfamily="" c_text="U1" d="M 4047.559 3278.8735 L 4047.559 3281.9435 L 4047.759 3282.5535 L 4048.169 3282.9635 L 4048.789 3283.1635 L 4049.199 3283.1635 L 4049.809 3282.9635 L 4050.219 3282.5535 L 4050.419 3281.9435 L 4050.419 3278.8735 M 4051.769 3279.6935 L 4052.179 3279.4835 L 4052.799 3278.8735 L 4052.799 3283.1635" fill="none"  stroke-width="0.6" c_note="note_pre" /></g><g c_partid="part_pcbtext" c_etype="" c_origin="4049.027,3274.85" c_rotation="0" c_mirror="0" id="gge211783" locked="0" layerid="3" c_shapetype="group" display="none"><path c_fontsize="4.5" c_fontfamily="" c_text="PZ254V-11-02P" d="M 4049.0274 3270.3104 L 4049.0274 3274.6004 M 4049.0274 3270.3104 L 4050.8674 3270.3104 L 4051.4774 3270.5104 L 4051.6874 3270.7204 L 4051.8874 3271.1304 L 4051.8874 3271.7404 L 4051.6874 3272.1504 L 4051.4774 3272.3504 L 4050.8674 3272.5604 L 4049.0274 3272.5604 M 4056.1074 3270.3104 L 4053.2374 3274.6004 M 4053.2374 3270.3104 L 4056.1074 3270.3104 M 4053.2374 3274.6004 L 4056.1074 3274.6004 M 4057.6574 3271.3304 L 4057.6574 3271.1304 L 4057.8674 3270.7204 L 4058.0674 3270.5104 L 4058.4774 3270.3104 L 4059.2974 3270.3104 L 4059.7074 3270.5104 L 4059.9074 3270.7204 L 4060.1174 3271.1304 L 4060.1174 3271.5404 L 4059.9074 3271.9504 L 4059.4974 3272.5604 L 4057.4574 3274.6004 L 4060.3174 3274.6004 M 4064.1274 3270.3104 L 4062.0774 3270.3104 L 4061.8774 3272.1504 L 4062.0774 3271.9504 L 4062.6874 3271.7404 L 4063.3074 3271.7404 L 4063.9174 3271.9504 L 4064.3274 3272.3504 L 4064.5274 3272.9704 L 4064.5274 3273.3804 L 4064.3274 3273.9904 L 4063.9174 3274.4004 L 4063.3074 3274.6004 L 4062.6874 3274.6004 L 4062.0774 3274.4004 L 4061.8774 3274.2004 L 4061.6674 3273.7904 M 4067.9274 3270.3104 L 4065.8774 3273.1704 L 4068.9474 3273.1704 M 4067.9274 3270.3104 L 4067.9274 3274.6004 M 4070.2974 3270.3104 L 4071.9374 3274.6004 M 4073.5774 3270.3104 L 4071.9374 3274.6004 M 4074.9274 3272.7604 L 4078.6074 3272.7604 M 4079.9574 3271.1304 L 4080.3674 3270.9204 L 4080.9774 3270.3104 L 4080.9774 3274.6004 M 4082.3274 3271.1304 L 4082.7374 3270.9204 L 4083.3474 3270.3104 L 4083.3474 3274.6004 M 4084.6974 3272.7604 L 4088.3774 3272.7604 M 4090.9574 3270.3104 L 4090.3474 3270.5104 L 4089.9374 3271.1304 L 4089.7274 3272.1504 L 4089.7274 3272.7604 L 4089.9374 3273.7904 L 4090.3474 3274.4004 L 4090.9574 3274.6004 L 4091.3674 3274.6004 L 4091.9774 3274.4004 L 4092.3874 3273.7904 L 4092.5974 3272.7604 L 4092.5974 3272.1504 L 4092.3874 3271.1304 L 4091.9774 3270.5104 L 4091.3674 3270.3104 L 4090.9574 3270.3104 M 4094.1474 3271.3304 L 4094.1474 3271.1304 L 4094.3574 3270.7204 L 4094.5574 3270.5104 L 4094.9674 3270.3104 L 4095.7874 3270.3104 L 4096.1974 3270.5104 L 4096.3974 3270.7204 L 4096.6074 3271.1304 L 4096.6074 3271.5404 L 4096.3974 3271.9504 L 4095.9874 3272.5604 L 4093.9474 3274.6004 L 4096.8074 3274.6004 M 4098.1574 3270.3104 L 4098.1574 3274.6004 M 4098.1574 3270.3104 L 4099.9974 3270.3104 L 4100.6174 3270.5104 L 4100.8174 3270.7204 L 4101.0274 3271.1304 L 4101.0274 3271.7404 L 4100.8174 3272.1504 L 4100.6174 3272.3504 L 4099.9974 3272.5604 L 4098.1574 3272.5604" fill="none"  stroke-width="0.6" c_note="note_name" /></g><g c_partid="part_pcbtext" c_etype="" c_origin="4047.028,3300.351" c_rotation="0" c_mirror="0" id="gge211789" locked="0" layerid="3" c_shapetype="group" display="none"><path c_fontsize="4.5" c_fontfamily="" c_text="H1" d="M 4047.0275 3295.8105 L 4047.0275 3300.1005 M 4049.8875 3295.8105 L 4049.8875 3300.1005 M 4047.0275 3297.8505 L 4049.8875 3297.8505 M 4051.2375 3296.6305 L 4051.6475 3296.4205 L 4052.2675 3295.8105 L 4052.2675 3300.1005" fill="none"  stroke-width="0.6" c_note="note_pre" /></g><path d="M 4070.5275 3318.8451 A 21 21 0 1 0 4070.5275 3318.867" locked="0"  fill="none" stroke-width="1" c_helper_type="arc2" net="" layerid="3" id="gge215624" /><polyline points="4071.2122 3340.5 4027.8867 3340.5" stroke-width="1"  stroke-linecap="round" fill="none" layerid="10" net="S$215960" id="gge215959" locked="0" /><polyline points="4079.055 3289.225 4079.055 3332.6391" stroke-width="1"  stroke-linecap="round" fill="none" layerid="10" net="S$215956" id="gge215955" locked="0" /><polyline points="4027.8655 3281.445 4071.1897 3281.445" stroke-width="1"  stroke-linecap="round" fill="none" layerid="10" net="S$215952" id="gge215951" locked="0" /><polyline points="4020 3332.6209 4020 3288.9283" stroke-width="1"  stroke-linecap="round" fill="none" layerid="10" net="S$215948" id="gge215947" locked="0" /><path d="M4027.8655,3281.445 A7.874,7.874 0 0 0 4020.0001,3289.3615" locked="0"  fill="none" stroke-width="1" c_helper_type="arc2" net="S$212030" layerid="10" id="gge215932" /><path d="M4079.055,3289.225 A7.8746,7.8746 0 0 0 4071.1897,3281.4444" locked="0"  fill="none" stroke-width="1" c_helper_type="arc2" net="S$212030" layerid="10" id="gge215935" /><path d="M4020,3332.6209 A7.874,7.874 0 0 0 4027.8867,3340.5" locked="0"  fill="none" stroke-width="1" c_helper_type="arc2" net="S$212030" layerid="10" id="gge215938" /><path d="M4071.2122,3340.5 A7.8741,7.8741 0 0 0 4079.0551,3332.6391" locked="0"  fill="none" stroke-width="1" c_helper_type="arc2" net="S$212030" layerid="10" id="gge215941" /><circle cx="4027.874" cy="3289.319" r="0.984" stroke-width="1" fill="none" layerid="10" id="gge215975" locked="0"  net="S$215976" transformarc="circle_gge215979,circle_gge215982"/><circle cx="4072.165" cy="3289.319" r="0.984" stroke-width="1" fill="none" layerid="10" id="gge215991" locked="0"  net="S$215992" transformarc="circle_gge215995,circle_gge215998"/><circle cx="4027.874" cy="3302.114" r="0.984" stroke-width="1" fill="none" layerid="10" id="gge216007" locked="0"  net="S$216008" transformarc="circle_gge216011,circle_gge216014"/><circle cx="4072.165" cy="3301.13" r="0.984" stroke-width="1" fill="none" layerid="10" id="gge216023" locked="0"  net="S$216024" transformarc="circle_gge216027,circle_gge216030"/><circle cx="4024.921" cy="3318.847" r="0.984" stroke-width="1" fill="none" layerid="10" id="gge216039" locked="0"  net="S$216040" transformarc="circle_gge216043,circle_gge216046"/><circle cx="4075.118" cy="3318.847" r="0.984" stroke-width="1" fill="none" layerid="10" id="gge216055" locked="0"  net="S$216056" transformarc="circle_gge216059,circle_gge216062"/><circle cx="4027.874" cy="3332.626" r="0.984" stroke-width="1" fill="none" layerid="10" id="gge216071" locked="0"  net="S$216072" transformarc="circle_gge216075,circle_gge216078"/><circle cx="4072.165" cy="3332.626" r="0.984" stroke-width="1" fill="none" layerid="10" id="gge216087" locked="0"  net="S$216088" transformarc="circle_gge216091,circle_gge216094"/></svg>